name C:\Users\u0101727\Documents\MyRepositories\predictivesimulations\OpenSimModel\subject1\EMG\EMG_gait_25.mot
datacolumns 25
datarows 22
range 2.10600000 2.12700000
endheader
time	HamL_r	TA_r	PerL_r	GL_r	HamM_r	Sol_r	VL_r	VM_r	PerB_l	TA_l	PerL_l	GL_l	GM_l	Sol_l	VL_l	VM_l	AddL_l	RF_l	TFL_l	GluMed_l	HamL_l	HamM_l	GluMed_r	RF_r	
          2.10600000	          0.00588766	          0.00314677	          0.06832822	          0.00390014	          0.00480204	          0.06900190	          0.00503494	          0.00301958	          0.00988303	          0.03587308	          0.01287310	          0.00618624	          0.01455069	          0.00800910	          0.00800677	          0.01337164	          0.01027864	          0.01517745	          0.00555294	          0.00569877	          0.01528895	          0.05104151	          0.01727236	          0.00754825	
          2.10700000	          0.00584206	          0.00314798	          0.06778789	          0.00387557	          0.00485062	          0.06936329	          0.00505774	          0.00304396	          0.00996291	          0.03609477	          0.01296258	          0.00622625	          0.01484764	          0.00811239	          0.00817502	          0.01355638	          0.01037581	          0.01547134	          0.00559084	          0.00571060	          0.01502253	          0.05114491	          0.01702513	          0.00756716	
          2.10800000	          0.00579538	          0.00314973	          0.06724013	          0.00385240	          0.00490058	          0.06969827	          0.00508044	          0.00306836	          0.01004145	          0.03631363	          0.01304527	          0.00626533	          0.01513810	          0.00821661	          0.00834928	          0.01374204	          0.01046845	          0.01575399	          0.00563040	          0.00572184	          0.01477628	          0.05127010	          0.01676090	          0.00758171	
          2.10900000	          0.00574768	          0.00315210	          0.06668754	          0.00383086	          0.00495189	          0.07000422	          0.00510279	          0.00309263	          0.01011792	          0.03652726	          0.01312097	          0.00630346	          0.01542015	          0.00832118	          0.00852947	          0.01392866	          0.01055593	          0.01602391	          0.00567147	          0.00573242	          0.01455155	          0.05141596	          0.01648053	          0.00759176	
          2.11000000	          0.00569900	          0.00315517	          0.06613243	          0.00381112	          0.00500454	          0.07027816	          0.00512461	          0.00311664	          0.01019145	          0.03673370	          0.01318949	          0.00634063	          0.01569193	          0.00842547	          0.00871555	          0.01411644	          0.01063755	          0.01627953	          0.00571388	          0.00574223	          0.01434947	          0.05158089	          0.01618533	          0.00759727	
          2.11100000	          0.00564935	          0.00315901	          0.06557683	          0.00379330	          0.00505847	          0.07051705	          0.00514587	          0.00314018	          0.01026108	          0.03693172	          0.01325074	          0.00637681	          0.01595173	          0.00852880	          0.00890756	          0.01430568	          0.01071260	          0.01651930	          0.00575744	          0.00575112	          0.01417098	          0.05176296	          0.01587688	          0.00759825	
          2.11200000	          0.00559879	          0.00316364	          0.06502276	          0.00377749	          0.00511361	          0.07071828	          0.00516662	          0.00316309	          0.01032577	          0.03712065	          0.01330479	          0.00641196	          0.01619799	          0.00863047	          0.00910561	          0.01449667	          0.01078036	          0.01674189	          0.00580191	          0.00575895	          0.01401689	          0.05196002	          0.01555687	          0.00759477	
          2.11300000	          0.00554740	          0.00316907	          0.06447230	          0.00376377	          0.00516988	          0.07087969	          0.00518695	          0.00318518	          0.01038450	          0.03730006	          0.01335183	          0.00644600	          0.01642946	          0.00872988	          0.00930988	          0.01468960	          0.01084020	          0.01694641	          0.00584698	          0.00576556	          0.01388795	          0.05216986	          0.01522691	          0.00758690	
          2.11400000	          0.00549532	          0.00317526	          0.06392751	          0.00375222	          0.00522715	          0.07099919	          0.00520694	          0.00320628	          0.01043625	          0.03746960	          0.01339219	          0.00647882	          0.01664517	          0.00882645	          0.00952056	          0.01488459	          0.01089167	          0.01713239	          0.00589233	          0.00577080	          0.01378483	          0.05239018	          0.01488863	          0.00757474	
          2.11500000	          0.00544273	          0.00318221	          0.06339049	          0.00374287	          0.00528527	          0.07107496	          0.00522662	          0.00322623	          0.01048003	          0.03762916	          0.01342615	          0.00651035	          0.01684444	          0.00891965	          0.00973773	          0.01508165	          0.01093444	          0.01729964	          0.00593759	          0.00577450	          0.01370819	          0.05261834	          0.01454360	          0.00755843	
          2.11600000	          0.00538986	          0.00318984	          0.06286355	          0.00373575	          0.00534403	          0.07110636	          0.00524599	          0.00324488	          0.01051484	          0.03777881	          0.01345389	          0.00654061	          0.01702679	          0.00900888	          0.00996138	          0.01528078	          0.01096819	          0.01744807	          0.00598240	          0.00577648	          0.01365861	          0.05285122	          0.01419338	          0.00753814	
          2.11700000	          0.00533698	          0.00319806	          0.06234888	          0.00373089	          0.00540319	          0.07109453	          0.00526500	          0.00326212	          0.01053966	          0.03791896	          0.01347549	          0.00656967	          0.01719177	          0.00909352	          0.01019139	          0.01548196	          0.01099261	          0.01757764	          0.00602644	          0.00577656	          0.01363660	          0.05308542	          0.01383951	          0.00751407	
          2.11800000	          0.00528435	          0.00320674	          0.06184829	          0.00372827	          0.00546246	          0.07104187	          0.00528357	          0.00327788	          0.01055347	          0.03805040	          0.01349102	          0.00659764	          0.01733886	          0.00917303	          0.01042752	          0.01568515	          0.01100755	          0.01768848	          0.00606946	          0.00577462	          0.01364268	          0.05331782	          0.01348346	          0.00748644	
          2.11900000	          0.00523226	          0.00321570	          0.06136298	          0.00372785	          0.00552151	          0.07095101	          0.00530158	          0.00329207	          0.01055553	          0.03817405	          0.01350058	          0.00662463	          0.01746740	          0.00924710	          0.01066951	          0.01589022	          0.01101313	          0.01778089	          0.00611133	          0.00577056	          0.01367735	          0.05354617	          0.01312659	          0.00745549	
          2.12000000	          0.00518093	          0.00322474	          0.06089376	          0.00372957	          0.00557996	          0.07082444	          0.00531891	          0.00330463	          0.01054551	          0.03829079	          0.01350433	          0.00665074	          0.01757654	          0.00931567	          0.01091700	          0.01609700	          0.01100969	          0.01785528	          0.00615191	          0.00576434	          0.01374108	          0.05376937	          0.01277013	          0.00742138	
          2.12100000	          0.00513062	          0.00323364	          0.06044121	          0.00373334	          0.00563739	          0.07066451	          0.00533543	          0.00331551	          0.01052346	          0.03840138	          0.01350240	          0.00667607	          0.01766528	          0.00937884	          0.01116957	          0.01630523	          0.01099762	          0.01791215	          0.00619103	          0.00575592	          0.01383424	          0.05398712	          0.01241515	          0.00738427	
          2.12200000	          0.00508162	          0.00324219	          0.06000572	          0.00373907	          0.00569335	          0.07047307	          0.00535105	          0.00332476	          0.01048964	          0.03850660	          0.01349489	          0.00670070	          0.01773269	          0.00943668	          0.01142672	          0.01651457	          0.01097734	          0.01795195	          0.00622848	          0.00574532	          0.01395706	          0.05419945	          0.01206264	          0.00734427	
          2.12300000	          0.00503424	          0.00325027	          0.05958736	          0.00374664	          0.00574736	          0.07025112	          0.00536566	          0.00333247	          0.01044440	          0.03860730	          0.01348181	          0.00672472	          0.01777799	          0.00948926	          0.01168782	          0.01672467	          0.01094926	          0.01797509	          0.00626405	          0.00573259	          0.01410961	          0.05440622	          0.01171350	          0.00730149	
          2.12400000	          0.00498881	          0.00325785	          0.05918573	          0.00375590	          0.00579901	          0.06999875	          0.00537912	          0.00333872	          0.01038815	          0.03870414	          0.01346312	          0.00674820	          0.01780073	          0.00953664	          0.01195220	          0.01693509	          0.01091384	          0.01798180	          0.00629762	          0.00571792	          0.01429185	          0.05460690	          0.01136861	          0.00725605	
          2.12500000	          0.00494562	          0.00326496	          0.05879993	          0.00376668	          0.00584789	          0.06971531	          0.00539130	          0.00334358	          0.01032132	          0.03879746	          0.01343880	          0.00677119	          0.01780076	          0.00957891	          0.01221907	          0.01714530	          0.01087167	          0.01797219	          0.00632918	          0.00570151	          0.01450368	          0.05480054	          0.01102880	          0.00720810	
          2.12600000	          0.00490489	          0.00327167	          0.05842853	          0.00377877	          0.00589366	          0.06939989	          0.00540202	          0.00334708	          0.01024443	          0.03888721	          0.01340889	          0.00679366	          0.01777829	          0.00961619	          0.01248756	          0.01735466	          0.01082344	          0.01794628	          0.00635891	          0.00568361	          0.01474503	          0.05498583	          0.01069485	          0.00715783	
          2.12700000	          0.00486678	          0.00327809	          0.05806969	          0.00379190	          0.00593605	          0.06905157	          0.00541113	          0.00334925	          0.01015810	          0.03897300	          0.01337353	          0.00681559	          0.01773385	          0.00964859	          0.01275678	          0.01756242	          0.01076988	          0.01790404	          0.00638711	          0.00566439	          0.01501595	          0.05516134	          0.01036749	          0.00710549	
